<svg xmlns="http://www.w3.org/2000/svg" viewBox="0 0 200 60">
  <path fill="#660099" d="M149.51,24.94c-3.38,0-5.19,3.36-5.19,7.54v.05c0,4.18,1.81,7.54,5.19,7.54s5.19-3.36,5.19-7.54v-.05C154.7,28.31,152.89,24.94,149.51,24.94Zm0,12.67c-2.01,0-2.58-2.33-2.58-5.09v-.05c0-2.77.57-5.09,2.58-5.09s2.58,2.33,2.58,5.09v.05C152.09,35.29,151.52,37.62,149.51,37.62ZM185.13,24.94c-3.38,0-5.19,3.36-5.19,7.54v.05c0,4.18,1.81,7.54,5.19,7.54s5.19-3.36,5.19-7.54v-.05C190.32,28.31,188.51,24.94,185.13,24.94Zm0,12.67c-2.01,0-2.58-2.33-2.58-5.09v-.05c0-2.77.57-5.09,2.58-5.09s2.58,2.33,2.58,5.09v.05C187.71,35.29,187.14,37.62,185.13,37.62Z"/>
  <path fill="#660099" d="M104.47,35.12l-4.7-9.81H97.07v14.1h2.45V29.6l4.7,9.81h2.7v-14.1h-2.45Zm22.06,4.29h2.58V25.31h-2.58Zm-13.02-14.1h-2.58l-4.56,14.1h2.55l1.04-3.28h4.52l1.04,3.28h2.55L113.51,25.31Zm-2.9,8.71l1.61-5.05,1.6,5.05h-3.21Zm43.88-5.99c-1.36-.45-2.17-.73-2.17-1.38S153.42,25.65,154.11,25.65s1.17.33,1.19,1.34h2.46c-.04-1.76-1.31-3.04-3.59-3.04-2.14,0-3.67,1.04-3.67,2.7,0,1.4,1.27,2.08,2.49,2.49,1.36.45,2.15.71,2.15,1.38,0,.67-.68,1.1-1.57,1.1-.89,0-1.35-.51-1.37-1.52h-2.46c.03,1.93,1.3,3.22,3.83,3.22,2.27,0,3.99-1.06,3.99-2.8C157.57,29.27,156.34,28.57,154.97,28.03ZM133.42,25.31h-2.58v14.1h7.93v-2.12h-5.35Zm22.06-1.65c-3.75,0-6.32,2.82-6.32,7.25v.31c0,4.43,2.58,7.25,6.32,7.25,3.75,0,6.32-2.82,6.32-7.25v-.31C161.8,26.48,159.23,23.66,155.48,23.66Zm3.72,7.56c0,3.23-1.12,5.31-3.72,5.31s-3.72-2.08-3.72-5.31v-.31c0-3.23,1.12-5.31,3.72-5.31s3.72,2.08,3.72,5.31Zm25.93,2.81c-1.36-.45-2.17-.73-2.17-1.38s1.1-.99,1.79-.99,1.17.33,1.19,1.34h2.46c-.04-1.76-1.31-3.04-3.59-3.04-2.14,0-3.67,1.04-3.67,2.7,0,1.4,1.27,2.08,2.49,2.49,1.36.45,2.15.71,2.15,1.38,0,.67-.68,1.1-1.57,1.1-.89,0-1.35-.51-1.37-1.52h-2.46c.03,1.93,1.3,3.22,3.83,3.22,2.27,0,3.99-1.06,3.99-2.8C189.19,35.27,187.95,34.57,185.13,34.03ZM36.52,33.39c0,3.17-2.12,5.38-5.23,5.38-3.06,0-5.08-2.21-5.08-5.38v-.22c0-3.1,2.17-5.36,5.13-5.36,3.06,0,5.18,2.29,5.18,5.36Zm-14.44,0c0,5.1,3.84,8.8,9.18,8.8s9.33-3.59,9.33-8.75v-.27c0-5.1-3.84-8.75-9.28-8.75s-9.23,3.67-9.23,8.75Zm26.09-11.95c0,1.68-1.33,3.01-2.97,3.01s-2.97-1.33-2.97-3.01,1.33-3.01,2.97-3.01S48.17,19.76,48.17,21.43Zm-7.94,5.77v14.1h2.97v-14.1Zm11.85,5.68c0-2.72,1.58-3.69,3.79-3.69h1.14V26.94a4.94,4.94,0,0,0-3.76,1.97l-.22-1.65H49.99v14.1h2.97V28.6c0-.53.04-1.14.1-1.69Z"/>
  <path fill="#99cc33" d="M67.73,27.16h2.97v14.1H67.73Zm0-5.73c0-1.68,1.33-3.01,2.97-3.01s2.97,1.33,2.97,3.01-1.33,3.01-2.97,3.01S67.73,23.12,67.73,21.43ZM88.19,33.39c0,3.17-2.12,5.38-5.23,5.38-3.06,0-5.08-2.21-5.08-5.38v-.22c0-3.1,2.17-5.36,5.13-5.36,3.06,0,5.18,2.29,5.18,5.36Zm-14.44,0c0,5.1,3.84,8.8,9.18,8.8s9.33-3.59,9.33-8.75v-.27c0-5.1-3.84-8.75-9.28-8.75s-9.23,3.67-9.23,8.75Z"/>
</svg>
