<svg xmlns="http://www.w3.org/2000/svg" width="78" height="32" viewBox="0 0 78 32" fill="none">
  <path d="M47.9824 1.46069L51.0217 8.70414L54.061 1.46069H57.5876L52.6322 12.0026C52.1845 12.9428 51.7369 13.4629 50.9939 13.4629C50.2508 13.4629 49.8032 12.9878 49.3555 12.0026L44.4001 1.46069H47.9824Z" fill="white"/>
  <path d="M0 13.0179H3.39612V1.45619H0V13.0179Z" fill="white"/>
  <path d="M13.2682 13.0179L16.0841 5.50459L18.9 13.0179H22.0299L26.6997 1.45619H23.2627L20.4468 9.15416L17.631 1.45619H14.5461L11.7303 9.15416L8.87014 1.45619H5.47852L10.1483 13.0179H13.2682Z" fill="white"/>
  <path d="M27.7168 7.23694C27.7168 10.7422 30.5777 13.2383 34.4525 13.2383C38.3273 13.2383 41.2339 10.6972 41.2339 7.23694C41.2339 3.77665 38.3729 1.2356 34.4525 1.2356C30.5321 1.2356 27.7168 3.77665 27.7168 7.23694ZM37.8791 7.23694C37.8791 9.06923 36.3599 10.3394 34.4525 10.3394C32.5451 10.3394 31.0715 9.06923 31.0715 7.23694C31.0715 5.40465 32.5451 4.13444 34.4525 4.13444C36.3599 4.13444 37.8791 5.40465 37.8791 7.23694Z" fill="white"/>
  <path d="M43.0371 29.4394H46.343V20.3379H43.0371V29.4394Z" fill="white"/>
  <path d="M56.4756 29.6597C57.8131 29.6597 58.9691 29.2146 59.7577 28.2744L59.8489 29.4394H62.6192V20.3379H59.3133V24.7886C59.3133 26.4409 58.5248 27.3361 57.2328 27.3361C55.9862 27.3361 55.424 26.5309 55.424 25.1037V20.3379H52.0729V25.9538C52.0729 28.0044 53.5008 29.6597 56.4756 29.6597Z" fill="white"/>
  <path d="M70.1855 29.4394V25.0127C70.1855 23.3604 71.0201 22.4653 72.3124 22.4653C73.5136 22.4653 74.1214 23.2704 74.1214 24.6977V29.4394H77.4729V23.8465C77.4729 21.7739 76.045 20.1186 73.0697 20.1186C71.7322 20.1186 70.5762 20.5636 69.7876 21.5038L69.697 20.3389H66.9268V29.4394H70.1855Z" fill="white"/>
  <path d="M36.768 29.6598C38.1055 29.6598 39.2616 29.2147 40.0502 28.2745L40.1414 29.4395H42.9116V20.338H39.6057V24.7887C39.6057 26.441 38.8172 27.3362 37.5248 27.3362C36.2783 27.3362 35.716 26.531 35.716 25.1038V20.338H32.3643V25.9539C32.3198 28.0044 33.7477 29.6598 36.768 29.6598Z" fill="white"/>
  <path d="M49.9849 23.3394V20.3389H48.3301V16.8337L45.0693 17.9537V20.3389H43.5049V23.3394H45.0693V26.1483C45.0693 28.5786 46.4073 29.6596 49.1766 29.6596C49.6242 29.6596 50.2782 29.5696 50.5911 29.4346V26.5254C50.3694 26.5704 50.1021 26.5704 49.9204 26.5704C49.0858 26.5704 48.7728 26.1933 48.7728 25.3881V23.3394H49.9849Z" fill="white"/>
  <path fill-rule="evenodd" clip-rule="evenodd" d="M61.885 20.3389V29.4394H65.1909V20.3389H61.885Z" fill="white"/>
  <path d="M63.561 16.0286C62.5889 16.0286 61.7998 16.8338 61.7998 17.8189C61.7998 18.804 62.6344 19.6091 63.561 19.6091C64.5331 19.6091 65.3223 18.804 65.3223 17.8189C65.3678 16.7878 64.5331 16.0286 63.561 16.0286Z" fill="white"/>
  <path d="M44.6406 16.2937L46.6846 19.4291H49.3195L45.6995 13.9731L44.6406 16.2937Z" fill="white"/>
</svg>